<svg xmlns="http://www.w3.org/2000/svg" viewBox="0 0 100.94 70.02"><defs><style>.cls-1{fill:#62b664;}.cls-2{fill:#fff;}.cls-3{fill:#41a143;}</style></defs><g id="Camada_2" data-name="Camada 2"><g id="Camada_1-2" data-name="Camada 1"><path class="cls-1" d="M35,0A35,35,0,1,1,0,35,35,35,0,0,1,35,0Z"/><path class="cls-2" d="M48.92,24l-.21-.21a3,3,0,0,0-4.24,0L30,38.24,23.81,32a3,3,0,0,0-4.24,0l-.21.21a3,3,0,0,0,0,4.24l8.4,8.4a2.93,2.93,0,0,0,2.28.86,3,3,0,0,0,2.28-.86l16.6-16.61A3,3,0,0,0,48.92,24Z"/><rect class="cls-3" x="98.27" y="0.56" width="2.67" height="69.11"/></g></g></svg>