<svg xmlns="http://www.w3.org/2000/svg" viewBox="0 0 100.93 70.02"><defs><style>.cls-1{fill:#fb6867;}.cls-2{fill:#fff;}.cls-3{fill:#de4a4a;}</style></defs><g id="Camada_2" data-name="Camada 2"><g id="Camada_1-2" data-name="Camada 1"><path class="cls-1" d="M35,0A35,35,0,1,1,0,35,35,35,0,0,1,35,0Z"/><path class="cls-2" d="M39.42,35l4.27-4.28a3.11,3.11,0,0,0-4.41-4.4L35,30.6l-4.28-4.27a3.11,3.11,0,0,0-4.4,4.4L30.6,35l-4.27,4.27a3.11,3.11,0,0,0,4.4,4.41L35,39.42l4.27,4.27a3.12,3.12,0,0,0,4.41-4.41Z"/><rect class="cls-3" x="98.26" y="1.23" width="2.67" height="68.44"/></g></g></svg>