<svg xmlns="http://www.w3.org/2000/svg" viewBox="0 0 125 58.6"><defs><style>.cls-1{fill:#f9ba48;}.cls-2{fill:#d75a4a;}.cls-3{fill:none;stroke-width:2px;}.cls-3,.cls-4{stroke:#fff;}.cls-4{fill:#fff;stroke-width:0.25px;}</style></defs><g id="Camada_2" data-name="Camada 2"><g id="Camada_1-2" data-name="Camada 1"><path class="cls-1" d="M125,26l-8.72-11.56H107l-2.33,5.78h-2.91l-2.32-5.78H89.54l-2.33,5.78H84.3L82,14.44H72.09l-2.32,5.78H66.86l-2.33-5.78h-15A26.11,26.11,0,1,0,26.16,52,26.15,26.15,0,0,0,49.57,37.56h66.71Z"/><path class="cls-2" d="M38.3,36.68a11,11,0,1,1-11,11A11,11,0,0,1,38.3,36.68Z"/><path class="cls-3" d="M34.3,43.64l4,4,4,4"/><path class="cls-3" d="M34.3,51.64l4-4,4-4"/><circle class="cls-4" cx="16.51" cy="26.04" r="8.52"/></g></g></svg>