<svg width="18" height="17" viewBox="0 0 18 17" fill="none" xmlns="http://www.w3.org/2000/svg">
<path d="M8.69374 0.224609C7.02248 0.224609 5.38874 0.693801 3.99913 1.57285C2.60952 2.4519 1.52645 3.70133 0.886881 5.16314C0.247314 6.62495 0.0799737 8.23348 0.406022 9.78533C0.732071 11.3372 1.53686 12.7626 2.71863 13.8815C3.9004 15.0003 5.40606 15.7622 7.04521 16.0709C8.68437 16.3796 10.3834 16.2211 11.9275 15.6156C13.4715 15.0101 14.7912 13.9848 15.7197 12.6692C16.6482 11.3536 17.1438 9.80686 17.1438 8.22461C17.1438 7.17403 16.9253 6.13374 16.5006 5.16314C16.076 4.19254 15.4535 3.31062 14.6689 2.56775C13.8842 1.82489 12.9527 1.23561 11.9275 0.833573C10.9022 0.431535 9.80343 0.224609 8.69374 0.224609ZM7.00373 12.2246L2.77868 8.22461L3.97014 7.09661L7.00373 9.96061L13.4173 3.88861L14.6088 5.02461L7.00373 12.2246Z" fill="#569F00"/>
</svg>
