<svg xmlns="http://www.w3.org/2000/svg" viewBox="0 0 79.56 126.5"><defs><style>.cls-1{fill:#f9ba48;}.cls-2{fill:#d75a4a;}.cls-3{fill:none;stroke:#fff;stroke-width:2px;}</style></defs><g id="Camada_2" data-name="Camada 2"><g id="Camada_1-2" data-name="Camada 1"><path class="cls-1" d="M11.25,78.63c10.35.13,18.47,3.52,23.62,12,1.8,2.95,2.64,6.47,4.08,9.65a2,2,0,0,0,2.46,1.26,2,2,0,0,0,1-2.11A29.43,29.43,0,0,0,19,75.62a22.17,22.17,0,0,0-3.69-.37c-.12,0-.11-.16-.13-.28-.11-.78,0-2.69,0-4.2.08-19.53,0-39.06,0-58.59,0-3.73.9-6.86,5.37-7.08,3.7-.18,5.75,2.37,5.77,7.21.06,15.07.05,30.14.07,45.21,0,1.07,0-.46,0,.53a1.88,1.88,0,0,0,2,1.54,1.92,1.92,0,0,0,1.89-1.65c0-1.12,0,.27,0-1l0-47.51c0-1.39,0-2.78.07-4.15C30.71,1.82,32.85,0,36.16,0s5.06,2.11,5.29,5.31c.19,2.6.12,5.22.12,7.84,0,15.07,0,28.62.07,43.69,0,1.39.17,2.18,1.69,2.25s2-.58,2-2c.16-14.46.13-27.72.14-42.18,0-1.38-.05-2.77.06-4.15C45.82,7.43,47.42,5.1,51,5.14s5.53,2.26,5.53,6q0,21.91.08,43.83c0,1.38,0,2.83.08,4.13s.72,1.45,1.89,1.46,1.92-.24,2-1.43c.16-9.38.1-18.76.11-28.14,0-1.23,0-2.47,0-3.69.22-3.39,1.9-5.55,5.43-5.58,3.7,0,5.81,2.15,5.82,5.74.06,20.91.66,41.85-.26,62.72-.82,18.61-18.09,33.47-36.29,33A35.92,35.92,0,0,1,.1,87.59c-.2-12.3,0-24.61,0-36.91,0-4.77,2.19-7.52,5.63-7.44s5.48,2.8,5.5,7.61C11.27,59.9,11.25,69,11.25,78.63Z"/><path class="cls-2" d="M64,95.31A15.6,15.6,0,1,1,48.37,110.9,15.6,15.6,0,0,1,64,95.31Z"/><path class="cls-3" d="M58.29,105.18,64,110.85l5.67,5.67"/><path class="cls-3" d="M58.29,116.52,64,110.85l5.67-5.67"/></g></g></svg>