<svg xmlns="http://www.w3.org/2000/svg" viewBox="0 0 69.26 76.8"><defs><style>.cls-1{fill:#ececec;}.cls-2{fill:#e1e1e1;}.cls-3{fill:#fff;}</style></defs><g id="Camada_2" data-name="Camada 2"><g id="Camada_1-2" data-name="Camada 1"><path class="cls-1" d="M61.42,30.05l-8.07,5,4.25,9.55L41,54l8.21-7.41c-3,.86-6.76,1.91-10.88,3C28.64,52.24,20.71,54.2,20.65,54s7.78-2.51,17.51-5.13c4.67-1.25,8.91-2.36,12.08-3.14l3.11-2.81-3.72-4.35c-3.21,1-7.94,2.28-13.25,3.71-9.72,2.62-17.65,4.57-17.71,4.36s7.78-2.51,17.51-5.13c5.17-1.39,9.82-2.6,13.06-3.39l-4-4.65L48.2,31C45,32,40,33.38,34.4,34.89c-9.73,2.63-17.66,4.58-17.71,4.37s7.78-2.51,17.5-5.13c6.23-1.68,11.71-3.08,14.87-3.82l10.16-8.43-1.62-6L41.7,20.14a5.11,5.11,0,0,1-6.26-3.61L31,0,4.07,7.25A5.5,5.5,0,0,0,.19,14L16,72.73a5.5,5.5,0,0,0,6.74,3.88L65.19,65.17a5.49,5.49,0,0,0,3.88-6.74ZM12.06,22.1c-.05-.21,4.29-1.56,9.72-3s9.86-2.48,9.92-2.27-4.3,1.57-9.72,3S12.12,22.32,12.06,22.1Zm2.52,9.35c-.05-.21,7.13-2.33,16.06-4.74s16.2-4.18,16.25-4-7.13,2.34-16,4.74S14.64,31.66,14.58,31.45ZM40.35,57c-9.73,2.62-17.66,4.57-17.71,4.36s7.78-2.51,17.51-5.13,17.65-4.58,17.71-4.36S50.08,54.36,40.35,57Z"/><path class="cls-2" d="M41.7,20.14l15.9-4.28L31,0l4.46,16.53A5.11,5.11,0,0,0,41.7,20.14Z"/><path class="cls-3" d="M31.7,16.81c-.06-.21-4.5.8-9.92,2.27s-9.77,2.81-9.72,3,4.5-.79,9.92-2.26S31.75,17,31.7,16.81Z"/><path class="cls-3" d="M46.89,22.74c0-.21-7.33,1.57-16.25,4s-16.11,4.53-16.06,4.74,7.34-1.56,16.26-4S47,23,46.89,22.74Z"/><path class="cls-3" d="M34.19,34.13c-9.72,2.62-17.56,4.91-17.5,5.13s8-1.74,17.71-4.37C40,33.38,45,32,48.2,31l.86-.71C45.9,31.05,40.42,32.45,34.19,34.13Z"/><path class="cls-3" d="M36.18,41.49c-9.73,2.62-17.57,4.92-17.51,5.13s8-1.74,17.71-4.36c5.31-1.43,10-2.76,13.25-3.71l-.39-.45C46,38.89,41.35,40.1,36.18,41.49Z"/><path class="cls-3" d="M38.16,48.85C28.43,51.47,20.6,53.77,20.65,54s8-1.74,17.72-4.36c4.12-1.11,7.9-2.16,10.88-3l1-.89C47.07,46.49,42.83,47.6,38.16,48.85Z"/><path class="cls-3" d="M40.15,56.22c-9.73,2.62-17.57,4.91-17.51,5.13s8-1.74,17.71-4.36,17.57-4.92,17.51-5.13S49.87,53.6,40.15,56.22Z"/></g></g></svg>