<svg xmlns="http://www.w3.org/2000/svg" viewBox="0 0 69.64 81.03"><defs><style>.cls-1{fill:#ececec;}.cls-2{fill:#e1e1e1;}.cls-3{fill:#fff;}.cls-4{fill:#d75a4a;}.cls-5{fill:none;stroke:#fff;stroke-width:2px;}</style></defs><g id="Camada_2" data-name="Camada 2"><g id="Camada_1-2" data-name="Camada 1"><path class="cls-1" d="M49.44,71.85l-43.94,0A5.5,5.5,0,0,1,0,66.33L0,5.5A5.5,5.5,0,0,1,5.53,0H33.4L55,22.26l0,44.09A5.51,5.51,0,0,1,49.44,71.85Z"/><path class="cls-2" d="M33.4,0V17.13a5.1,5.1,0,0,0,5.11,5.12H55Z"/><path class="cls-3" d="M29.71,16.43c0,.22-4.55.4-10.17.4s-10.16-.19-10.16-.41S13.93,16,19.55,16,29.71,16.21,29.71,16.43Z"/><path class="cls-3" d="M42.84,26.12c0,.22-7.49.39-16.73.39S9.37,26.32,9.37,26.1s7.49-.39,16.74-.39S42.84,25.9,42.84,26.12Z"/><path class="cls-3" d="M45.85,34.2c0,.22-8.17.4-18.24.39s-18.24-.18-18.24-.4,8.16-.4,18.24-.39S45.85,34,45.85,34.2Z"/><path class="cls-3" d="M45.84,41.83c0,.22-8.16.39-18.23.39S9.37,42,9.37,41.81s8.16-.39,18.24-.39S45.84,41.61,45.84,41.83Z"/><path class="cls-3" d="M45.84,49.46c0,.22-8.17.39-18.24.39s-18.24-.19-18.24-.41,8.17-.4,18.24-.39S45.84,49.24,45.84,49.46Z"/><path class="cls-3" d="M45.84,57.08c0,.22-8.17.4-18.24.39s-18.24-.19-18.24-.41,8.16-.39,18.24-.38S45.84,56.86,45.84,57.08Z"/><path class="cls-4" d="M54.05,49.85a15.59,15.59,0,1,1-15.6,15.59A15.59,15.59,0,0,1,54.05,49.85Z"/><path class="cls-5" d="M48.37,59.71l5.68,5.67,5.67,5.67"/><path class="cls-5" d="M48.37,71.05l5.68-5.67,5.67-5.67"/></g></g></svg>