<svg xmlns="http://www.w3.org/2000/svg" viewBox="0 0 73.23 76.8"><defs><style>.cls-1{fill:#ececec;}.cls-2{fill:#e1e1e1;}.cls-3{fill:#fff;}.cls-4{fill:#f7c126;}</style></defs><g id="Camada_2" data-name="Camada 2"><g id="Camada_1-2" data-name="Camada 1"><path class="cls-1" d="M65.19,65.17,22.76,76.61A5.5,5.5,0,0,1,16,72.73L.19,14A5.5,5.5,0,0,1,4.07,7.25L31,0,57.6,15.86,69.07,58.43A5.49,5.49,0,0,1,65.19,65.17Z"/><path class="cls-2" d="M31,0l4.46,16.53a5.11,5.11,0,0,0,6.26,3.61l15.9-4.28Z"/><path class="cls-3" d="M31.7,16.81c.05.22-4.3,1.57-9.72,3s-9.86,2.48-9.92,2.26,4.29-1.56,9.72-3S31.64,16.6,31.7,16.81Z"/><path class="cls-3" d="M46.89,22.74c.06.22-7.13,2.34-16,4.74s-16.2,4.18-16.26,4,7.13-2.33,16-4.74S46.84,22.53,46.89,22.74Z"/><path class="cls-3" d="M51.91,29.76c.05.22-7.79,2.51-17.51,5.13s-17.66,4.58-17.71,4.37,7.78-2.51,17.5-5.13S51.85,29.55,51.91,29.76Z"/><path class="cls-3" d="M53.89,37.13c.06.21-7.78,2.51-17.51,5.13s-17.65,4.57-17.71,4.36,7.78-2.51,17.51-5.13S53.83,36.92,53.89,37.13Z"/><path class="cls-3" d="M55.87,44.49c.06.21-7.78,2.51-17.5,5.13S20.71,54.2,20.65,54s7.78-2.51,17.51-5.13S55.82,44.28,55.87,44.49Z"/><path class="cls-3" d="M57.86,51.86c.06.21-7.78,2.5-17.51,5.13s-17.66,4.57-17.71,4.36,7.78-2.51,17.51-5.13S57.8,51.64,57.86,51.86Z"/><polygon class="cls-4" points="55.88 41.87 43.56 52.98 60.12 43.54 55.88 33.98 73.23 23.32 67.9 15.76 47.79 32.43 55.88 41.87"/></g></g></svg>