<svg width="13" height="11" viewBox="0 0 13 11" fill="none" xmlns="http://www.w3.org/2000/svg">
<g clip-path="url(#clip0_7659_164338)">
<path d="M7.9714 5.88059C8.03972 5.79384 7.97807 5.66782 7.86641 5.66782L6.63491 5.66782L6.63491 0.130935C6.63491 0.0589214 6.57492 5.61698e-07 6.5016 5.68108e-07L5.50173 6.55519e-07C5.42841 6.61929e-07 5.36842 0.0589215 5.36842 0.130935L5.36842 5.66782L4.13358 5.66782C4.02193 5.66782 3.96027 5.79385 4.0286 5.87895L5.89501 8.19976C5.90748 8.21541 5.92342 8.22807 5.94161 8.23677C5.9598 8.24548 5.97977 8.25 6 8.25C6.02023 8.25 6.0402 8.24548 6.05839 8.23677C6.07658 8.22807 6.09251 8.21541 6.10498 8.19976L7.9714 5.88059ZM13 7.45658C13 7.3888 12.9374 7.33333 12.861 7.33333L11.8182 7.33333C11.7417 7.33333 11.6791 7.3888 11.6791 7.45658L11.6791 9.82913L1.32086 9.82913L1.32085 7.45658C1.32085 7.3888 1.25829 7.33333 1.18182 7.33333L0.139037 7.33333C0.0625662 7.33333 -3.15702e-07 7.3888 -3.09775e-07 7.45658L-4.30992e-08 10.507C-1.92599e-08 10.7797 0.248529 11 0.556149 11L12.4439 11C12.7515 11 13 10.7797 13 10.507L13 7.45658Z" fill="#495057"/>
</g>
<defs>
<clipPath id="clip0_7659_164338">
<rect width="13" height="11" fill="white" transform="translate(13 11) rotate(180)"/>
</clipPath>
</defs>
</svg>
