<svg width="20" height="19" viewBox="0 0 20 19" fill="none" xmlns="http://www.w3.org/2000/svg">
<path d="M14.7504 9.50039C14.7504 9.75235 14.6503 9.99398 14.4721 10.1721C14.294 10.3503 14.0523 10.4504 13.8004 10.4504H6.20039C5.94843 10.4504 5.7068 10.3503 5.52864 10.1721C5.35048 9.99398 5.25039 9.75235 5.25039 9.50039C5.25039 9.24843 5.35048 9.0068 5.52864 8.82864C5.7068 8.65048 5.94843 8.55039 6.20039 8.55039H13.8004C14.0523 8.55039 14.294 8.65048 14.4721 8.82864C14.6503 9.0068 14.7504 9.24843 14.7504 9.50039ZM10.0004 1.90039C7.98475 1.90039 6.05166 2.7011 4.62638 4.12638C3.2011 5.55166 2.40039 7.48475 2.40039 9.50039C2.40039 11.516 3.2011 13.4491 4.62638 14.8744C6.05166 16.2997 7.98475 17.1004 10.0004 17.1004C12.016 17.1004 13.9491 16.2997 15.3744 14.8744C16.7997 13.4491 17.6004 11.516 17.6004 9.50039C17.6004 7.48475 16.7997 5.55166 15.3744 4.12638C13.9491 2.7011 12.016 1.90039 10.0004 1.90039Z" fill="#F9C100"/>
</svg>
