<svg width="18" height="17" viewBox="0 0 18 17" fill="none" xmlns="http://www.w3.org/2000/svg">
<path d="M9.15664 0.224609C7.48537 0.224609 5.85163 0.693801 4.46202 1.57285C3.07241 2.4519 1.98934 3.70133 1.34977 5.16314C0.710204 6.62495 0.542864 8.23348 0.868913 9.78533C1.19496 11.3372 1.99975 12.7626 3.18152 13.8815C4.36329 15.0003 5.86895 15.7622 7.50811 16.0709C9.14726 16.3796 10.8463 16.2211 12.3903 15.6156C13.9344 15.0101 15.2541 13.9848 16.1826 12.6692C17.1111 11.3536 17.6067 9.80686 17.6067 8.22461C17.6059 6.10311 16.7154 4.06871 15.1309 2.56859C13.5463 1.06846 11.3975 0.225362 9.15664 0.224609ZM10.0016 12.2246H8.31163V10.6246H10.0016V12.2246ZM10.0016 9.02461H8.31163V4.22461H10.0016V9.02461Z" fill="#f9c100"/>
</svg>
