<?xml version="1.0" encoding="utf-8"?>
<svg version="1.1" xmlns:xlink="http://www.w3.org/1999/xlink" width="125px" height="52px" xmlns="http://www.w3.org/2000/svg">
  <g transform="matrix(1 0 0 1 -675 -230 )">
    <path d="M 124.99999999999999 26  L 116.27936025457912 14.444582367180946  L 106.97701143421277 14.444582367180946  L 104.6514242291212 20.22229118359047  L 101.74412794908416 20.22229118359047  L 99.4185407439926 14.444582367180946  L 89.53510739602591 14.444582367180946  L 87.20952019093434 20.22229118359047  L 84.3022239108973 20.22229118359047  L 81.97663670580572 14.444582367180946  L 72.09257881049393 14.444582367180946  L 69.76699160540235 20.22229118359047  L 66.86031987271043 20.22229118359047  L 64.53473266761884 14.444582367180946  C 64.53473266761884 14.444582367180946  49.572215349678 14.444582367180946  49.572215349678 14.444582367180946  C 45.287553532697174 5.890491803664092  36.42675584105066 0  26.162543783607745 0  C 11.711654941074148 0  0 11.639235082191222  0 26  C 0 40.36076491780878  11.712274756999985 52  26.162543783607745 52  C 36.429856103534654 52  45.29065438660859 46.1095081963359  49.572215349678 37.55541763281905  C 49.572215349678 37.55541763281905  116.278735707234 37.55541763281905  116.278735707234 37.55541763281905  L 124.99999999999999 26  Z " fill-rule="nonzero" fill="#f9ba48" stroke="none" transform="matrix(1 0 0 1 675 230 )" />
  </g>
</svg>