<?xml version="1.0" encoding="utf-8"?>
<svg version="1.1" xmlns:xlink="http://www.w3.org/1999/xlink" width="25px" height="23px" xmlns="http://www.w3.org/2000/svg">
  <g transform="matrix(1 0 0 1 -62 -4457 )">
    <path d="M 18.97399818760332 22.865104691630375  C 18.97399818760332 22.865104691630375  12.508783454197308 18.95308028427886  12.508783454197308 18.95308028427886  C 12.508783454197308 18.95308028427886  5.973295725726971 22.73020423733459  5.973295725726971 22.73020423733459  C 5.762473515265168 22.865101606084806  5.621925263259678 22.865104691630375  5.411103052797875 22.865104691630375  C 5.200280842336072 22.865104691630375  4.989459186871828 22.797653951899992  4.84891105005451 22.66275658314978  C 4.708362913237192 22.52785921439956  4.5678147816557 22.39296391608057  4.497540713247041 22.190617857929926  C 4.427266644838382 21.988271799779284  4.427266377811255 21.785924736564937  4.427266377811255 21.583578678414295  C 4.427266377811255 21.583578678414295  6.113843726412814 14.568915865225957  6.113843726412814 14.568915865225957  C 6.113843726412814 14.568915865225957  0.35137033680746893 9.780059088656477  0.35137033680746893 9.780059088656477  C 0.14054812634566594 9.64516171990626  0.07027406840865899 9.442816194439379  0 9.240470136288735  C 0 9.038124078138091  0 8.835777266189671  0 8.700879897439453  C 0.07027406840865899 8.498533839288811  0.14054812634566594 8.363637254488282  0.35137033680746893 8.228739885738067  C 0.5621925472692719 8.093842516987849  0.7027407992747625 8.026393063739008  0.9135630097365656 8.026393063739008  C 0.9135630097365656 8.026393063739008  8.50316174862931 7.35190623003856  8.50316174862931 7.35190623003856  C 8.50316174862931 7.35190623003856  11.454672443774902 0.607038536274864  11.454672443774902 0.607038536274864  C 11.524946512183561 0.40469247812422043  11.665496245927818 0.2697952500829221  11.87631845638962 0.1348978813327054  C 12.087140666851424 0.06744919695759702  12.227688248671182 0  12.438510459132985 0  C 12.649332669594788 0  12.789880251414548 0.06744919695759702  13.000702461876351 0.1348978813327054  C 13.211524672338154 0.2697952500829221  13.352071725339485 0.40469247812422043  13.422345793748141 0.607038536274864  C 13.422345793748141 0.607038536274864  16.373857159079467 7.35190623003856  16.373857159079467 7.35190623003856  C 16.373857159079467 7.35190623003856  24.03373157377946 8.026393063739008  24.03373157377946 8.026393063739008  C 24.244553784241262 8.026393063739008  24.455375439705506 8.093842516987849  24.59592357652283 8.228739885738067  C 24.736471713340144 8.363637254488282  24.877019844921637 8.498533839288811  24.947293913330295 8.700879897439453  C 25.017567981738953 8.903225955590097  25.017567981738953 9.038124078138091  24.947293913330295 9.240470136288735  C 24.947293913330295 9.442816194439379  24.806745786984628 9.577713030505834  24.59592357652283 9.780059088656477  C 24.59592357652283 9.780059088656477  18.903722511796072 14.568915865225957  18.903722511796072 14.568915865225957  C 18.903722511796072 14.568915865225957  20.590301200769094 21.71847398678392  20.590301200769094 21.71847398678392  C 20.660575269177752 21.920820044934562  20.59030227411343 22.12316710814891  20.520028205704772 22.32551316629955  C 20.44975413729611 22.527859224450197  20.30920600571462 22.662759668695344  20.168657868897302 22.797657037445564  C 20.028109732079987 22.93255440619578  19.817285395872812 23  19.60646318541101 23  C 19.395640974949206 23  19.184820398065124 22.932553376005483  18.97399818760332 22.865104691630375  Z " fill-rule="nonzero" fill="#f8d104" stroke="none" transform="matrix(1 0 0 1 62 4457 )" />
  </g>
</svg>