<?xml version="1.0" encoding="utf-8"?>
<svg version="1.1" xmlns:xlink="http://www.w3.org/1999/xlink" width="545px" height="160px" xmlns="http://www.w3.org/2000/svg">
  <g transform="matrix(1 0 0 1 -56 -776 )">
    <path d="M 0 160  L 0 0.46357615894032733  C 0 0.46357615894032733  58.258627858627904 -3.245033112582746  153.50686070686072 70.92715231788088  C 248.75509355509354 145.0993377483444  153.50686070686072 70.92715231788088  153.50686070686072 70.92715231788088  C 153.50686070686072 70.92715231788088  216.3891891891892 125.62913907284769  300.5405405405406 108.94039735099341  C 384.69189189189194 92.25165562913912  408.7351351351351 73.70860927152319  482.7143451143452 108.94039735099341  C 556.6935550935551 144.17218543046351  482.7143451143452 108.94039735099341  482.7143451143452 108.94039735099341  C 482.7143451143452 108.94039735099341  510.46670573859274 121.78259100304956  534.1358071594028 147.46697830716175  C 535.8892714713427 149.36973987428257  537.6203260199113 151.3429820321694  539.3160270945898 153.38670478082224  C 540.8240792433228 155.20426598222969  540.3000000000001 154.60000000000002  542.2 157.10000000000002  C 544.1 159.60000000000002  544.4407484407484 160  544.4407484407484 160  L 0 160  Z " fill-rule="nonzero" fill="#f7c126" stroke="none" transform="matrix(1 0 0 1 56 776 )" />
  </g>
</svg>