<?xml version="1.0" encoding="utf-8"?>
<svg version="1.1" xmlns:xlink="http://www.w3.org/1999/xlink" width="230px" height="68px" xmlns="http://www.w3.org/2000/svg">
  <g transform="matrix(1 0 0 1 0 -382 )">
    <path d="M 0 68  L 0 0.19701986754963913  C 0 0.19701986754963913  24.586209921989756 -1.379139072847667  64.78271185794122 30.144039735099376  C 104.9792137938927 61.667218543046374  64.78271185794122 30.144039735099376  64.78271185794122 30.144039735099376  C 64.78271185794122 30.144039735099376  91.32020828167619 53.392384105960275  126.83362261343913 46.2996688741722  C 162.34703694520212 39.20695364238412  172.49372675427722 31.326158940397356  203.71431078220073 46.2996688741722  C 234.93489481012418 61.27317880794699  203.71431078220073 46.2996688741722  203.71431078220073 46.2996688741722  C 203.71431078220073 46.2996688741722  215.42631618325933 51.75760117629606  225.41511127828008 62.67346578054375  C 226.15510539157583 63.48213944657009  226.88564217354056 64.32076736367199  227.60125914083608 65.18934953184946  C 228.23768481828301 65.96181304244762  228.01651376146793 65.70500000000001  228.81834862385324 66.76750000000001  C 229.62018348623855 67.83000000000001  229.76398558049934 68  229.76398558049934 68  L 0 68  Z " fill-rule="nonzero" fill="#f7c126" stroke="none" transform="matrix(1 0 0 1 0 382 )" />
  </g>
</svg>