<svg width="14" height="13" viewBox="0 0 14 13" fill="none" xmlns="http://www.w3.org/2000/svg">
<path d="M5.05873 2.9136H6.31826V8.67951C6.31826 8.7545 6.37962 8.81586 6.45461 8.81586H7.47724C7.55223 8.81586 7.61359 8.7545 7.61359 8.67951V2.9136H8.87653C8.99073 2.9136 9.05379 2.78236 8.98391 2.69373L7.07501 0.276925C7.06225 0.260628 7.04596 0.247448 7.02735 0.238384C7.00875 0.22932 6.98833 0.224609 6.96763 0.224609C6.94694 0.224609 6.92652 0.22932 6.90791 0.238384C6.88931 0.247448 6.87301 0.260628 6.86026 0.276925L4.95135 2.69203C4.88147 2.78236 4.94454 2.9136 5.05873 2.9136ZM13.2057 8.16819H12.183C12.108 8.16819 12.0467 8.22955 12.0467 8.30454V10.9293H1.88859V8.30454C1.88859 8.22955 1.82723 8.16819 1.75224 8.16819H0.729612C0.654619 8.16819 0.593262 8.22955 0.593262 8.30454V11.6792C0.593262 11.9809 0.836988 12.2246 1.13866 12.2246H12.7966C13.0983 12.2246 13.342 11.9809 13.342 11.6792V8.30454C13.342 8.22955 13.2806 8.16819 13.2057 8.16819Z" fill="#495057"/>
</svg>
