<svg width="17" height="18" viewBox="0 0 17 18" fill="none" xmlns="http://www.w3.org/2000/svg">
<path fill-rule="evenodd" clip-rule="evenodd" d="M12.116 7.12495C12.1657 7.17449 12.2051 7.23334 12.232 7.29814C12.2589 7.36293 12.2727 7.4324 12.2727 7.50255C12.2727 7.5727 12.2589 7.64216 12.232 7.70696C12.2051 7.77175 12.1657 7.83061 12.116 7.88015L8.91603 11.0801C8.86648 11.1298 8.80763 11.1692 8.74284 11.1961C8.67804 11.223 8.60858 11.2368 8.53843 11.2368C8.46827 11.2368 8.39881 11.223 8.33402 11.1961C8.26922 11.1692 8.21037 11.1298 8.16083 11.0801L6.56083 9.48015C6.51124 9.43056 6.4719 9.37169 6.44507 9.3069C6.41823 9.24212 6.40442 9.17267 6.40442 9.10255C6.40442 9.03242 6.41823 8.96298 6.44507 8.89819C6.4719 8.8334 6.51124 8.77454 6.56083 8.72495C6.61041 8.67536 6.66928 8.63603 6.73407 8.60919C6.79886 8.58235 6.8683 8.56854 6.93843 8.56854C7.00855 8.56854 7.07799 8.58235 7.14278 8.60919C7.20757 8.63603 7.26644 8.67536 7.31603 8.72495L8.53843 9.94842L11.3608 7.12495C11.4104 7.07528 11.4692 7.03587 11.534 7.00899C11.5988 6.9821 11.6683 6.96826 11.7384 6.96826C11.8086 6.96826 11.878 6.9821 11.9428 7.00899C12.0076 7.03587 12.0665 7.07528 12.116 7.12495Z" fill="white"/>
<path d="M3.73868 0.569092H14.4053C14.9711 0.569092 15.5138 0.793853 15.9138 1.19393C16.3139 1.59401 16.5387 2.13663 16.5387 2.70243V15.5024C16.5387 16.0682 16.3139 16.6108 15.9138 17.0109C15.5138 17.411 14.9711 17.6358 14.4053 17.6358H3.73868C3.17288 17.6358 2.63026 17.411 2.23019 17.0109C1.83011 16.6108 1.60535 16.0682 1.60535 15.5024V14.4358H2.67201V15.5024C2.67201 15.7853 2.78439 16.0566 2.98443 16.2567C3.18447 16.4567 3.45578 16.5691 3.73868 16.5691H14.4053C14.6882 16.5691 14.9596 16.4567 15.1596 16.2567C15.3596 16.0566 15.472 15.7853 15.472 15.5024V2.70243C15.472 2.41953 15.3596 2.14822 15.1596 1.94818C14.9596 1.74814 14.6882 1.63576 14.4053 1.63576H3.73868C3.45578 1.63576 3.18447 1.74814 2.98443 1.94818C2.78439 2.14822 2.67201 2.41953 2.67201 2.70243V3.76909H1.60535V2.70243C1.60535 2.13663 1.83011 1.59401 2.23019 1.19393C2.63026 0.793853 3.17288 0.569092 3.73868 0.569092V0.569092Z" fill="white"/>
<path d="M1.60512 5.90236V5.36903C1.60512 5.22758 1.66131 5.09192 1.76133 4.9919C1.86135 4.89188 1.997 4.83569 2.13845 4.83569C2.2799 4.83569 2.41556 4.89188 2.51558 4.9919C2.6156 5.09192 2.67179 5.22758 2.67179 5.36903V5.90236H3.20512C3.34657 5.90236 3.48222 5.95855 3.58224 6.05857C3.68226 6.15859 3.73845 6.29424 3.73845 6.43569C3.73845 6.57714 3.68226 6.7128 3.58224 6.81282C3.48222 6.91284 3.34657 6.96903 3.20512 6.96903H1.07179C0.930337 6.96903 0.794681 6.91284 0.694662 6.81282C0.594642 6.7128 0.538452 6.57714 0.538452 6.43569C0.538452 6.29424 0.594642 6.15859 0.694662 6.05857C0.794681 5.95855 0.930337 5.90236 1.07179 5.90236H1.60512ZM1.60512 9.10236V8.56903C1.60512 8.42758 1.66131 8.29192 1.76133 8.1919C1.86135 8.09188 1.997 8.03569 2.13845 8.03569C2.2799 8.03569 2.41556 8.09188 2.51558 8.1919C2.6156 8.29192 2.67179 8.42758 2.67179 8.56903V9.10236H3.20512C3.34657 9.10236 3.48222 9.15855 3.58224 9.25857C3.68226 9.35859 3.73845 9.49424 3.73845 9.63569C3.73845 9.77714 3.68226 9.9128 3.58224 10.0128C3.48222 10.1128 3.34657 10.169 3.20512 10.169H1.07179C0.930337 10.169 0.794681 10.1128 0.694662 10.0128C0.594642 9.9128 0.538452 9.77714 0.538452 9.63569C0.538452 9.49424 0.594642 9.35859 0.694662 9.25857C0.794681 9.15855 0.930337 9.10236 1.07179 9.10236H1.60512ZM1.60512 12.3024V11.769C1.60512 11.6276 1.66131 11.4919 1.76133 11.3919C1.86135 11.2919 1.997 11.2357 2.13845 11.2357C2.2799 11.2357 2.41556 11.2919 2.51558 11.3919C2.6156 11.4919 2.67179 11.6276 2.67179 11.769V12.3024H3.20512C3.34657 12.3024 3.48222 12.3586 3.58224 12.4586C3.68226 12.5586 3.73845 12.6942 3.73845 12.8357C3.73845 12.9771 3.68226 13.1128 3.58224 13.2128C3.48222 13.3128 3.34657 13.369 3.20512 13.369H1.07179C0.930337 13.369 0.794681 13.3128 0.694662 13.2128C0.594642 13.1128 0.538452 12.9771 0.538452 12.8357C0.538452 12.6942 0.594642 12.5586 0.694662 12.4586C0.794681 12.3586 0.930337 12.3024 1.07179 12.3024H1.60512Z" fill="white"/>
</svg>
