<svg width="17" height="17" viewBox="0 0 17 17" fill="none" xmlns="http://www.w3.org/2000/svg">
<path d="M15.5441 11.0439H16.6869V13.9011H15.5441V11.0439Z" fill="white"/>
<path d="M13.2582 8.18701H14.401V13.9013H13.2582V8.18701Z" fill="white"/>
<path d="M8.11532 13.9013C7.35784 13.9004 6.63164 13.5991 6.09602 13.0635C5.5604 12.5278 5.25909 11.8016 5.25818 11.0442H6.40104C6.40104 11.3832 6.50158 11.7146 6.68995 11.9966C6.87831 12.2785 7.14605 12.4982 7.45929 12.6279C7.77254 12.7577 8.11722 12.7916 8.44976 12.7255C8.7823 12.6594 9.08776 12.4961 9.3275 12.2563C9.56725 12.0166 9.73052 11.7111 9.79667 11.3786C9.86281 11.0461 9.82887 10.7014 9.69911 10.3881C9.56936 10.0749 9.34964 9.80715 9.06773 9.61878C8.78581 9.43041 8.45438 9.32987 8.11532 9.32987V8.18701C8.87308 8.18701 9.59981 8.48803 10.1356 9.02385C10.6714 9.55967 10.9725 10.2864 10.9725 11.0442C10.9725 11.8019 10.6714 12.5286 10.1356 13.0645C9.59981 13.6003 8.87308 13.9013 8.11532 13.9013Z" fill="white"/>
<path d="M15.8297 0.187012H2.11539C1.81238 0.187314 1.52187 0.307819 1.3076 0.522081C1.09334 0.736343 0.972837 1.02686 0.972534 1.32987V15.0442C0.972837 15.3472 1.09334 15.6377 1.3076 15.8519C1.52187 16.0662 1.81238 16.1867 2.11539 16.187H15.8297C16.1326 16.1866 16.4231 16.066 16.6373 15.8518C16.8515 15.6375 16.9721 15.3471 16.9725 15.0442V1.32987C16.9722 1.02686 16.8517 0.736343 16.6375 0.522081C16.4232 0.307819 16.1327 0.187314 15.8297 0.187012ZM15.8297 5.32987H7.82968V1.32987H15.8297V5.32987ZM6.68682 1.32987V5.32987H2.11539V1.32987H6.68682ZM2.11539 15.0442V6.47273H15.8297L15.8308 15.0442H2.11539Z" fill="white"/>
</svg>
