<svg width="16" height="19" viewBox="0 0 16 19" fill="none" xmlns="http://www.w3.org/2000/svg">
<path d="M4.55444 7.58753C4.44928 7.69331 4.39026 7.83641 4.39026 7.98556C4.39026 8.13472 4.44928 8.27781 4.55444 8.38359L7.81208 11.6582L11.081 8.38924C11.1735 8.28123 11.2218 8.1423 11.2164 8.00021C11.2109 7.85812 11.152 7.72333 11.0514 7.62278C10.9509 7.52223 10.8161 7.46333 10.674 7.45784C10.5319 7.45235 10.393 7.50068 10.285 7.59318L8.37666 9.49582V1.3263C8.37666 1.17657 8.31718 1.03296 8.2113 0.927081C8.10542 0.821201 7.96182 0.761719 7.81208 0.761719C7.66234 0.761719 7.51874 0.821201 7.41286 0.927081C7.30698 1.03296 7.2475 1.17657 7.2475 1.3263V9.51276L5.33921 7.60447C5.23614 7.50041 5.09667 7.44047 4.95025 7.43731C4.80382 7.43415 4.66189 7.48801 4.55444 7.58753Z" fill="white"/>
<path d="M14.5871 7.81898C14.3983 7.81838 14.2096 7.80517 14.0225 7.77946V12.0534H10.9794L10.923 12.5558C10.8377 13.3024 10.4807 13.9916 9.92002 14.4919C9.35933 14.9922 8.63414 15.2687 7.88269 15.2687C7.13124 15.2687 6.40605 14.9922 5.84536 14.4919C5.28467 13.9916 4.92767 13.3024 4.84241 12.5558L4.78595 12.0534H1.6017V4.14919H5.55378V3.02002H1.31941C1.0948 3.02002 0.879398 3.10924 0.720578 3.26806C0.561758 3.42688 0.472534 3.64229 0.472534 3.86689V17.9815C0.472534 18.2061 0.561758 18.4215 0.720578 18.5803C0.879398 18.7391 1.0948 18.8284 1.31941 18.8284H14.3048C14.5294 18.8284 14.7448 18.7391 14.9037 18.5803C15.0625 18.4215 15.1517 18.2061 15.1517 17.9815V7.77946C14.9646 7.80517 14.776 7.81838 14.5871 7.81898ZM14.0225 17.6992H1.6017V13.1825H3.80922C4.0267 14.1002 4.54746 14.9176 5.28721 15.5025C6.02697 16.0874 6.94245 16.4056 7.88551 16.4056C8.82858 16.4056 9.74406 16.0874 10.4838 15.5025C11.2236 14.9176 11.7443 14.1002 11.9618 13.1825H14.0225V17.6992Z" fill="white"/>
<path d="M13.4725 5.76172C14.5771 5.76172 15.4725 4.86629 15.4725 3.76172C15.4725 2.65715 14.5771 1.76172 13.4725 1.76172C12.368 1.76172 11.4725 2.65715 11.4725 3.76172C11.4725 4.86629 12.368 5.76172 13.4725 5.76172Z" fill="white"/>
</svg>
