<svg id="Camada_1" data-name="Camada 1" xmlns="http://www.w3.org/2000/svg" viewBox="0 0 18.23 20.66"><defs><style>.cls-1{fill:#fff;}.cls-2{fill:none;stroke:#fff;stroke-linecap:round;stroke-linejoin:round;}</style></defs><path class="cls-1" d="M8.31.66a2.25,2.25,0,0,0-1.65.71A2.5,2.5,0,0,0,6,3.09V9.43A6.55,6.55,0,0,1,7.14,9.2V3.09a1.24,1.24,0,0,1,.34-.86,1.15,1.15,0,0,1,.83-.36H13V6.13a1.85,1.85,0,0,0,.52,1.29A1.67,1.67,0,0,0,14.72,8h4.09V17.7a1.25,1.25,0,0,1-.35.86,1.14,1.14,0,0,1-.82.35h-4.2a6.44,6.44,0,0,1-.77,1.22h5a2.31,2.31,0,0,0,1.65-.71A2.49,2.49,0,0,0,20,17.7V7.25A1.84,1.84,0,0,0,19.46,6L14.89,1.19A1.71,1.71,0,0,0,13.66.66ZM18.56,6.74H14.72a.55.55,0,0,1-.41-.18.6.6,0,0,1-.17-.43v-4Z" transform="translate(-1.74 -0.66)"/><line class="cls-2" x1="5.56" y1="12.27" x2="5.56" y2="12.83"/><line class="cls-2" x1="5.56" y1="17.33" x2="5.56" y2="17.89"/><path class="cls-2" d="M12.36,16.13a5.07,5.07,0,0,1-10,.73,6.41,6.41,0,0,1-.12-1.12,5.6,5.6,0,0,1,.29-1.69A5.05,5.05,0,0,1,7.3,10.68,5.16,5.16,0,0,1,10.67,12,5.07,5.07,0,0,1,12.36,16.13Z" transform="translate(-1.74 -0.66)"/><path class="cls-2" d="M6.18,17.43l.22.22a1.15,1.15,0,0,0,.79.34H7.3a1.14,1.14,0,0,0,1.13-1.13h0A1.13,1.13,0,0,0,7.3,15.74h0a1.12,1.12,0,0,1-1.12-1.12h0A1.13,1.13,0,0,1,7.3,13.49h.11a1.09,1.09,0,0,1,.79.34l.23.22" transform="translate(-1.74 -0.66)"/></svg>