<svg width="21" height="20" viewBox="0 0 21 20" fill="none" xmlns="http://www.w3.org/2000/svg">
<path d="M17.114 19.5525H3.836C3.35862 19.5525 2.90078 19.3629 2.56322 19.0253C2.22565 18.6878 2.03601 18.2299 2.03601 17.7525V8.29858C2.03601 8.13282 2.10186 7.97384 2.21907 7.85663C2.33628 7.73942 2.49525 7.67358 2.66101 7.67358C2.82677 7.67358 2.98574 7.73942 3.10295 7.85663C3.22016 7.97384 3.28601 8.13282 3.28601 8.29858V17.7525C3.28601 17.8976 3.34364 18.0367 3.44622 18.1393C3.5488 18.2419 3.68793 18.2995 3.83301 18.2995H17.114C17.259 18.2995 17.3982 18.2419 17.5008 18.1393C17.6033 18.0367 17.661 17.8976 17.661 17.7525V8.29858C17.661 8.13282 17.7268 7.97384 17.844 7.85663C17.9612 7.73942 18.1202 7.67358 18.286 7.67358C18.4517 7.67358 18.6107 7.73942 18.7279 7.85663C18.8451 7.97384 18.911 8.13282 18.911 8.29858V17.7525C18.911 18.2294 18.7217 18.6868 18.3848 19.0243C18.0479 19.3618 17.5908 19.5518 17.114 19.5525Z" fill="white"/>
<path d="M19.8476 10.4867C19.7655 10.4868 19.6841 10.4707 19.6083 10.4393C19.5324 10.4079 19.4635 10.3618 19.4056 10.3037L11.6326 2.53273C11.3247 2.22545 10.9075 2.05287 10.4726 2.05287C10.0376 2.05287 9.62044 2.22545 9.31259 2.53273L1.53961 10.3057C1.42239 10.4229 1.2634 10.4888 1.09761 10.4888C0.931833 10.4888 0.772841 10.4229 0.655616 10.3057C0.538391 10.1885 0.472534 10.0295 0.472534 9.86371C0.472534 9.69793 0.538391 9.53893 0.655616 9.42171L8.42859 1.64873C8.97113 1.10745 9.70621 0.803467 10.4726 0.803467C11.239 0.803467 11.974 1.10745 12.5166 1.64873L20.2896 9.42171C20.377 9.50912 20.4365 9.62049 20.4607 9.74174C20.4848 9.863 20.4724 9.98868 20.4251 10.1029C20.3778 10.2171 20.2976 10.3147 20.1948 10.3834C20.092 10.4521 19.9712 10.4887 19.8476 10.4887V10.4867Z" fill="white"/>
<path d="M12.9722 19.5512H7.97249C7.80674 19.5512 7.64778 19.4854 7.53058 19.3682C7.41338 19.251 7.34753 19.092 7.34753 18.9263V13.3796C7.34806 12.8619 7.55398 12.3654 7.9201 11.9993C8.28622 11.6332 8.78264 11.4273 9.30041 11.4268H11.6473C12.165 11.4273 12.6614 11.6332 13.0276 11.9993C13.3937 12.3654 13.5996 12.8619 13.6001 13.3796V18.9263C13.6001 19.0086 13.5839 19.0901 13.5523 19.1661C13.5207 19.2421 13.4744 19.3112 13.416 19.3692C13.3577 19.4273 13.2884 19.4733 13.2122 19.5045C13.1361 19.5357 13.0545 19.5516 12.9722 19.5512ZM8.59745 18.3013H12.3472V13.3796C12.3472 13.194 12.2735 13.016 12.1422 12.8847C12.0109 12.7534 11.8329 12.6797 11.6473 12.6797H9.3034C9.11776 12.6797 8.93973 12.7534 8.80847 12.8847C8.6772 13.016 8.60345 13.194 8.60345 13.3796L8.59745 18.3013Z" fill="white"/>
</svg>
