<svg width="20" height="23" viewBox="0 0 20 23" fill="none" xmlns="http://www.w3.org/2000/svg">
<path d="M11.9989 21.6984C11.9939 21.7571 11.9776 21.8142 11.9511 21.8665C11.9245 21.9187 11.8881 21.9651 11.844 22.0029C11.7888 22.0511 11.7227 22.0844 11.6517 22.0999C11.5807 22.1154 11.5071 22.1125 11.4375 22.0916L8.41227 21.1772C8.32902 21.1527 8.25497 21.1029 8.19988 21.0344L2.02953 13.4654C1.80645 13.1917 1.69858 12.8383 1.72965 12.4831C1.76072 12.1279 1.92817 11.7999 2.19519 11.5712L3.53781 10.4215C3.80489 10.1929 4.14964 10.0824 4.49624 10.1142C4.84284 10.146 5.16292 10.3177 5.38607 10.5913L11.5564 18.1603C11.612 18.2283 11.6465 18.3117 11.6558 18.3999L11.9958 21.6135C11.9993 21.6417 12.0004 21.6701 11.9989 21.6984ZM8.78837 20.352L11.0571 21.0376L10.8023 18.6276L4.71682 11.1627C4.64243 11.0715 4.53574 11.0143 4.42021 11.0037C4.30468 10.9931 4.18976 11.0299 4.10073 11.1061L2.75811 12.2557C2.66911 12.332 2.61329 12.4413 2.60293 12.5597C2.59258 12.6781 2.62853 12.7959 2.70289 12.8872L8.78837 20.352ZM11.2232 18.4448L11.224 18.4358L11.2232 18.4448Z" fill="white"/>
<path d="M8.30598 0.657227C7.68715 0.657227 7.09366 0.91367 6.65607 1.37014C6.21849 1.82661 5.97266 2.44572 5.97266 3.09127V9.42831C6.35401 9.3157 6.74458 9.24033 7.13932 9.20317V3.09127C7.13932 2.7685 7.26224 2.45894 7.48103 2.23071C7.69982 2.00247 7.99657 1.87425 8.30598 1.87425H12.9726V6.13383C12.9726 6.61799 13.157 7.08233 13.4852 7.42468C13.8134 7.76704 14.2585 7.95937 14.7226 7.95937H18.806V17.6956C18.806 18.0183 18.683 18.3279 18.4643 18.5561C18.2455 18.7844 17.9487 18.9126 17.6393 18.9126H13.4393C13.2269 19.3461 12.9699 19.7542 12.6728 20.1296H17.6393C18.2581 20.1296 18.8516 19.8732 19.2892 19.4167C19.7268 18.9602 19.9726 18.3411 19.9726 17.6956V7.24619C19.9722 6.76219 19.7876 6.29817 19.4593 5.95615L14.893 1.1915C14.5649 0.849494 14.1201 0.65733 13.6563 0.657227H8.30598ZM18.5645 6.74234H14.7226C14.5679 6.74234 14.4196 6.67823 14.3102 6.56412C14.2008 6.45 14.1393 6.29522 14.1393 6.13383V2.12617L18.5645 6.74234Z" fill="white"/>
</svg>
